<svg width="337" height="337" viewBox="0 0 337 337" fill="none" xmlns="http://www.w3.org/2000/svg">
<rect width="336.275" height="336.275" rx="80.7059" fill="#062D24"/>
<path d="M66.8131 213.236H50.3032V122.178H66.8131V213.236Z" fill="#E6EBE6"/>
<path d="M177.111 206.187C177.111 207.373 176.879 208.473 176.413 209.489C175.99 210.505 175.397 211.394 174.635 212.156C173.915 212.876 173.047 213.448 172.032 213.871C171.016 214.294 169.936 214.506 168.793 214.506C167.777 214.506 166.74 214.315 165.682 213.934C164.666 213.553 163.755 212.94 162.951 212.093L102.627 149.102V213.236H86.1169V129.226C86.1169 127.533 86.5825 126.009 87.5139 124.654C88.4875 123.257 89.7152 122.22 91.1968 121.543C92.7631 120.908 94.3718 120.76 96.0228 121.098C97.6738 121.395 99.0919 122.157 100.277 123.384L160.602 186.312V122.178H177.111V206.187Z" fill="#E6EBE6"/>
<path d="M285.695 213.236H269.186V182.219C269.186 182.219 262.505 190.884 248.234 190.884C233.962 190.884 211.147 190.884 211.147 190.884V213.236H194.637V167.707C194.637 161.061 195.78 154.944 198.066 149.356C200.352 143.768 203.527 138.963 207.591 134.941C211.655 130.92 216.46 127.787 222.005 125.543C227.551 123.3 233.605 122.178 240.166 122.178H277.377C278.52 122.178 279.599 122.389 280.615 122.813C281.631 123.236 282.52 123.829 283.282 124.591C284.044 125.353 284.637 126.242 285.06 127.258C285.484 128.274 285.695 129.353 285.695 130.496V213.236ZM211.147 174.374H245.79C258.711 174.374 269.186 163.9 269.186 150.978V138.688H240.166C239.658 138.688 238.579 138.772 236.928 138.942C235.319 139.069 233.435 139.428 231.276 140.021C229.16 140.614 226.916 141.524 224.545 142.752C222.175 143.979 219.995 145.673 218.005 147.832C216.015 149.991 214.364 152.7 213.052 155.959C211.782 159.177 211.147 163.093 211.147 167.707V174.374Z" fill="#E6EBE6"/>
</svg>
