<svg xmlns="http://www.w3.org/2000/svg" xmlns:xlink="http://www.w3.org/1999/xlink" width="779" zoomAndPan="magnify" viewBox="0 0 584.25 99.749996" height="133" preserveAspectRatio="xMidYMid meet" version="1.0"><defs><g/><clipPath id="07b46563f2"><path d="M 0.355469 12 L 565 12 L 565 87 L 0.355469 87 Z M 0.355469 12 " clip-rule="nonzero"/></clipPath><clipPath id="e14a8155d1"><path d="M 70 0.449219 L 284 0.449219 L 284 74.183594 L 70 74.183594 Z M 70 0.449219 " clip-rule="nonzero"/></clipPath><clipPath id="0864c116c9"><path d="M 176 14 L 213.566406 14 L 213.566406 60 L 176 60 Z M 176 14 " clip-rule="nonzero"/></clipPath><clipPath id="1362ac6463"><rect x="0" width="214" y="0" height="75"/></clipPath><clipPath id="71f69b2384"><path d="M 0.355469 10 L 40 10 L 40 65.429688 L 0.355469 65.429688 Z M 0.355469 10 " clip-rule="nonzero"/></clipPath><clipPath id="d7b96e47b3"><path d="M 36 9.953125 L 62.382812 9.953125 L 62.382812 48 L 36 48 Z M 36 9.953125 " clip-rule="nonzero"/></clipPath><clipPath id="05f0ded252"><path d="M 51 33 L 62.382812 33 L 62.382812 65 L 51 65 Z M 51 33 " clip-rule="nonzero"/></clipPath><clipPath id="dc6c790179"><rect x="0" width="565" y="0" height="75"/></clipPath></defs><g clip-path="url(#07b46563f2)"><g transform="matrix(1, 0, 0, 1, 0, 12)"><g clip-path="url(#dc6c790179)"><g clip-path="url(#e14a8155d1)"><g transform="matrix(1, 0, 0, 1, 70, -0.000000000000003553)"><g clip-path="url(#1362ac6463)"><g fill="#01184e" fill-opacity="1"><g transform="translate(1.204782, 59.933714)"><g><path d="M 24.078125 0.71875 C 20.390625 0.71875 17.207031 0.0820312 14.53125 -1.1875 C 11.851562 -2.457031 9.632812 -4.179688 7.875 -6.359375 C 6.113281 -8.535156 4.804688 -11.03125 3.953125 -13.84375 C 3.097656 -16.65625 2.671875 -19.609375 2.671875 -22.703125 C 2.671875 -25.796875 3.097656 -28.75 3.953125 -31.5625 C 4.804688 -34.375 6.113281 -36.867188 7.875 -39.046875 C 9.632812 -41.222656 11.851562 -42.9375 14.53125 -44.1875 C 17.207031 -45.4375 20.390625 -46.0625 24.078125 -46.0625 C 27.640625 -46.0625 30.738281 -45.46875 33.375 -44.28125 C 36.007812 -43.09375 38.128906 -41.4375 39.734375 -39.3125 C 41.335938 -37.195312 42.359375 -34.753906 42.796875 -31.984375 L 35.125 -31.984375 C 34.65625 -34.429688 33.414062 -36.335938 31.40625 -37.703125 C 29.40625 -39.078125 26.921875 -39.765625 23.953125 -39.765625 C 20.859375 -39.765625 18.269531 -39.03125 16.1875 -37.5625 C 14.113281 -36.09375 12.539062 -34.082031 11.46875 -31.53125 C 10.394531 -28.976562 9.859375 -26.035156 9.859375 -22.703125 C 9.859375 -19.378906 10.394531 -16.414062 11.46875 -13.8125 C 12.539062 -11.21875 14.113281 -9.1875 16.1875 -7.71875 C 18.269531 -6.257812 20.859375 -5.53125 23.953125 -5.53125 C 26.921875 -5.53125 29.40625 -6.25 31.40625 -7.6875 C 33.414062 -9.132812 34.65625 -11.304688 35.125 -14.203125 L 42.796875 -14.203125 C 42.117188 -9.648438 40.164062 -6.023438 36.9375 -3.328125 C 33.707031 -0.628906 29.421875 0.71875 24.078125 0.71875 Z M 24.078125 0.71875 "/></g></g></g><g fill="#01184e" fill-opacity="1"><g transform="translate(45.01374, 59.933714)"><g><path d="M 29.359375 -19.90625 L 37.796875 0 L 30.1875 0 L 22.59375 -18.65625 L 11.359375 -18.65625 L 11.359375 0 L 4.34375 0 L 4.34375 -45.34375 L 22.59375 -45.34375 C 25.4375 -45.34375 27.9375 -44.878906 30.09375 -43.953125 C 32.257812 -43.023438 33.945312 -41.585938 35.15625 -39.640625 C 36.363281 -37.703125 36.96875 -35.207031 36.96875 -32.15625 C 36.96875 -29.144531 36.285156 -26.597656 34.921875 -24.515625 C 33.554688 -22.429688 31.703125 -20.894531 29.359375 -19.90625 Z M 11.359375 -39.046875 L 11.359375 -24.78125 L 21.640625 -24.78125 C 24.328125 -24.78125 26.394531 -25.40625 27.84375 -26.65625 C 29.289062 -27.90625 30.015625 -29.679688 30.015625 -31.984375 C 30.015625 -34.234375 29.289062 -35.972656 27.84375 -37.203125 C 26.394531 -38.429688 24.328125 -39.046875 21.640625 -39.046875 Z M 11.359375 -39.046875 "/></g></g></g><g fill="#01184e" fill-opacity="1"><g transform="translate(83.888982, 59.933714)"><g><path d="M 34.171875 0 L 4.34375 0 L 4.34375 -45.34375 L 34.171875 -45.34375 L 34.171875 -39.046875 L 11.359375 -39.046875 L 11.359375 -25.859375 L 31.625 -25.859375 L 31.625 -19.609375 L 11.359375 -19.609375 L 11.359375 -6.296875 L 34.171875 -6.296875 Z M 34.171875 0 "/></g></g></g><g fill="#01184e" fill-opacity="1"><g transform="translate(119.435452, 59.933714)"><g><path d="M 17.171875 0 L 4.34375 0 L 4.34375 -45.34375 L 17.234375 -45.34375 C 24.804688 -45.34375 30.613281 -43.367188 34.65625 -39.421875 C 38.695312 -35.484375 40.71875 -29.875 40.71875 -22.59375 C 40.71875 -15.375 38.695312 -9.800781 34.65625 -5.875 C 30.613281 -1.957031 24.785156 0 17.171875 0 Z M 11.359375 -39.046875 L 11.359375 -6.296875 L 17.125 -6.296875 C 19.457031 -6.296875 21.625 -6.550781 23.625 -7.0625 C 25.625 -7.582031 27.375 -8.445312 28.875 -9.65625 C 30.382812 -10.863281 31.566406 -12.515625 32.421875 -14.609375 C 33.273438 -16.710938 33.703125 -19.375 33.703125 -22.59375 C 33.703125 -26.550781 33.007812 -29.738281 31.625 -32.15625 C 30.238281 -34.570312 28.296875 -36.320312 25.796875 -37.40625 C 23.296875 -38.5 20.40625 -39.046875 17.125 -39.046875 Z M 11.359375 -39.046875 "/></g></g></g><g fill="#01184e" fill-opacity="1"><g transform="translate(161.639474, 59.933714)"><g><path d="M 11.359375 0 L 4.34375 0 L 4.34375 -45.34375 L 11.359375 -45.34375 Z M 11.359375 0 "/></g></g></g><g clip-path="url(#0864c116c9)"><g fill="#01184e" fill-opacity="1"><g transform="translate(176.262263, 59.933714)"><g><path d="M 22.296875 0 L 15.28125 0 L 15.28125 -39.046875 L 0.71875 -39.046875 L 0.71875 -45.34375 L 36.90625 -45.34375 L 36.90625 -39.046875 L 22.296875 -39.046875 Z M 22.296875 0 "/></g></g></g></g></g></g></g><g fill="#01184e" fill-opacity="1"><g transform="translate(275.00972, 59.328381)"><g><path d="M 8.265625 0.578125 C 7.410156 0.578125 6.691406 0.285156 6.109375 -0.296875 C 5.523438 -0.878906 5.234375 -1.578125 5.234375 -2.390625 C 5.234375 -3.160156 5.535156 -3.828125 6.140625 -4.390625 C 6.742188 -4.953125 7.453125 -5.234375 8.265625 -5.234375 C 9.046875 -5.234375 9.707031 -4.953125 10.25 -4.390625 C 10.789062 -3.828125 11.0625 -3.160156 11.0625 -2.390625 C 11.0625 -1.578125 10.789062 -0.878906 10.25 -0.296875 C 9.707031 0.285156 9.046875 0.578125 8.265625 0.578125 Z M 8.265625 0.578125 "/></g></g></g><g fill="#01184e" fill-opacity="1"><g transform="translate(291.316675, 59.328381)"><g><path d="M 8.625 0 L 4.59375 0 L 4.59375 -44.4375 L 11.0625 -44.4375 L 25.5 -4.078125 L 39.953125 -44.4375 L 46.40625 -44.4375 L 46.40625 0 L 42.390625 0 L 42.390625 -40.1875 L 28.015625 0 L 23 0 L 8.625 -40.296875 Z M 8.625 0 "/></g></g></g><g fill="#01184e" fill-opacity="1"><g transform="translate(342.334151, 59.328381)"><g><path d="M 5.0625 0 L 0.9375 0 L 17.703125 -44.4375 L 22.359375 -44.4375 L 39.140625 0 L 35 0 L 30.515625 -12 L 9.546875 -12 Z M 20.03125 -40.296875 L 10.828125 -15.609375 L 29.234375 -15.609375 Z M 20.03125 -40.296875 "/></g></g></g><g fill="#01184e" fill-opacity="1"><g transform="translate(382.402669, 59.328381)"><g><path d="M 25.625 -20.09375 L 34.46875 0 L 30.046875 0 L 21.65625 -19.390625 C 21.382812 -19.347656 21.113281 -19.328125 20.84375 -19.328125 C 20.570312 -19.328125 20.28125 -19.328125 19.96875 -19.328125 L 8.625 -19.328125 L 8.625 0 L 4.59375 0 L 4.59375 -44.4375 L 19.96875 -44.4375 C 24.238281 -44.4375 27.65625 -43.382812 30.21875 -41.28125 C 32.78125 -39.1875 34.0625 -36.0625 34.0625 -31.90625 C 34.0625 -28.882812 33.3125 -26.363281 31.8125 -24.34375 C 30.320312 -22.320312 28.257812 -20.90625 25.625 -20.09375 Z M 8.625 -22.828125 L 19.453125 -22.828125 C 22.910156 -22.828125 25.550781 -23.601562 27.375 -25.15625 C 29.195312 -26.707031 30.109375 -28.921875 30.109375 -31.796875 C 30.109375 -34.671875 29.175781 -36.894531 27.3125 -38.46875 C 25.445312 -40.039062 22.828125 -40.828125 19.453125 -40.828125 L 8.625 -40.828125 Z M 8.625 -22.828125 "/></g></g></g><g fill="#01184e" fill-opacity="1"><g transform="translate(419.617464, 59.328381)"><g><path d="M 8.625 0 L 4.59375 0 L 4.59375 -44.4375 L 8.625 -44.4375 L 8.625 -23.875 L 28.53125 -44.4375 L 33.59375 -44.4375 L 13.109375 -23.125 L 34.875 0 L 29.296875 0 L 8.625 -22.125 Z M 8.625 0 "/></g></g></g><g fill="#01184e" fill-opacity="1"><g transform="translate(455.259813, 59.328381)"><g><path d="M 32.90625 0 L 4.59375 0 L 4.59375 -44.4375 L 32.90625 -44.4375 L 32.90625 -40.828125 L 8.625 -40.828125 L 8.625 -24.109375 L 29.9375 -24.109375 L 29.9375 -20.5 L 8.625 -20.5 L 8.625 -3.609375 L 32.90625 -3.609375 Z M 32.90625 0 "/></g></g></g><g fill="#01184e" fill-opacity="1"><g transform="translate(490.727453, 59.328381)"><g><path d="M 20.4375 0 L 16.421875 0 L 16.421875 -40.828125 L 0.8125 -40.828125 L 0.8125 -44.4375 L 36.109375 -44.4375 L 36.109375 -40.828125 L 20.4375 -40.828125 Z M 20.4375 0 "/></g></g></g><g fill="#01184e" fill-opacity="1"><g transform="translate(526.602737, 59.328381)"><g><path d="M 19.734375 0.578125 C 16.941406 0.578125 14.320312 0.132812 11.875 -0.75 C 9.4375 -1.644531 7.390625 -3.0625 5.734375 -5 C 4.085938 -6.945312 3.007812 -9.472656 2.5 -12.578125 L 6.578125 -12.578125 C 7.003906 -10.171875 7.90625 -8.269531 9.28125 -6.875 C 10.664062 -5.476562 12.304688 -4.488281 14.203125 -3.90625 C 16.109375 -3.320312 18.050781 -3.03125 20.03125 -3.03125 C 23.5625 -3.03125 26.296875 -3.84375 28.234375 -5.46875 C 30.179688 -7.101562 31.15625 -9.359375 31.15625 -12.234375 C 31.15625 -13.898438 30.804688 -15.265625 30.109375 -16.328125 C 29.410156 -17.398438 28.457031 -18.265625 27.25 -18.921875 C 26.050781 -19.585938 24.703125 -20.125 23.203125 -20.53125 C 21.710938 -20.9375 20.148438 -21.3125 18.515625 -21.65625 C 16.765625 -22.050781 15.046875 -22.476562 13.359375 -22.9375 C 11.671875 -23.40625 10.140625 -24.035156 8.765625 -24.828125 C 7.390625 -25.628906 6.289062 -26.707031 5.46875 -28.0625 C 4.65625 -29.425781 4.25 -31.175781 4.25 -33.3125 C 4.25 -35.71875 4.878906 -37.789062 6.140625 -39.53125 C 7.398438 -41.28125 9.117188 -42.628906 11.296875 -43.578125 C 13.472656 -44.535156 15.9375 -45.015625 18.6875 -45.015625 C 22.570312 -45.015625 25.875 -44.050781 28.59375 -42.125 C 31.3125 -40.207031 33.019531 -37.078125 33.71875 -32.734375 L 29.875 -32.734375 C 29.25 -35.910156 27.9375 -38.148438 25.9375 -39.453125 C 23.9375 -40.753906 21.503906 -41.40625 18.640625 -41.40625 C 15.609375 -41.40625 13.117188 -40.707031 11.171875 -39.3125 C 9.234375 -37.914062 8.265625 -36.007812 8.265625 -33.59375 C 8.265625 -31.65625 8.828125 -30.148438 9.953125 -29.078125 C 11.078125 -28.015625 12.539062 -27.210938 14.34375 -26.671875 C 16.15625 -26.128906 18.070312 -25.625 20.09375 -25.15625 C 21.914062 -24.769531 23.707031 -24.320312 25.46875 -23.8125 C 27.238281 -23.3125 28.859375 -22.613281 30.328125 -21.71875 C 31.804688 -20.820312 32.984375 -19.632812 33.859375 -18.15625 C 34.734375 -16.6875 35.171875 -14.769531 35.171875 -12.40625 C 35.171875 -8.519531 33.859375 -5.382812 31.234375 -3 C 28.617188 -0.613281 24.785156 0.578125 19.734375 0.578125 Z M 19.734375 0.578125 "/></g></g></g><g clip-path="url(#71f69b2384)"><path fill="#01184e" d="M 32.464844 46.566406 C 32.703125 46.757812 32.9375 46.910156 33.121094 47.105469 C 34.898438 49.015625 36.667969 50.9375 38.4375 52.851562 C 38.6875 53.121094 38.910156 53.421875 39.195312 53.648438 C 39.609375 53.976562 39.574219 54.304688 39.332031 54.710938 C 36.710938 59.109375 33.078125 62.347656 28.246094 64.085938 C 24.945312 65.277344 21.496094 65.398438 18.027344 64.957031 C 11.105469 64.074219 6.097656 60.386719 2.792969 54.347656 C 1.214844 51.46875 0.4375 48.277344 0.398438 45.023438 C 0.335938 39.71875 0.292969 34.398438 0.664062 29.113281 C 1.101562 22.886719 3.933594 17.714844 8.898438 13.863281 C 11.960938 11.488281 15.550781 10.332031 19.398438 10.089844 C 22.269531 9.910156 25.132812 10.019531 27.9375 10.792969 C 29.660156 11.265625 31.246094 12.023438 32.695312 13.0625 C 35.179688 14.839844 37.109375 17.164062 39.042969 19.488281 C 39.398438 19.914062 39.089844 20.261719 38.867188 20.589844 C 37.578125 22.480469 36.285156 24.363281 34.992188 26.25 C 34.515625 26.941406 34.042969 27.640625 33.546875 28.320312 C 32.878906 29.242188 32.695312 29.214844 31.957031 28.375 C 30.375 26.582031 28.875 24.695312 27.136719 23.070312 C 24.335938 20.445312 20.957031 19.558594 17.402344 21.21875 C 13.925781 22.839844 11.664062 25.625 11.34375 29.613281 C 11.191406 31.546875 11.234375 33.496094 11.226562 35.4375 C 11.207031 38.457031 11.195312 41.476562 11.230469 44.496094 C 11.242188 45.484375 11.34375 46.480469 11.53125 47.449219 C 11.988281 49.832031 13.421875 51.605469 15.363281 52.929688 C 19.621094 55.828125 25.238281 55.882812 29.195312 51.054688 C 30.257812 49.753906 31.179688 48.339844 32.167969 46.980469 C 32.253906 46.859375 32.339844 46.742188 32.464844 46.570312 Z M 32.464844 46.566406 " fill-opacity="1" fill-rule="nonzero"/></g><g clip-path="url(#d7b96e47b3)"><path fill="#01184e" d="M 62.316406 10.066406 C 62.324219 10.292969 62.339844 10.519531 62.339844 10.710938 C 62.351562 13.859375 62.375 17.011719 62.351562 20.160156 C 62.347656 20.621094 62.203125 21.15625 61.945312 21.535156 C 56.125 30.089844 50.277344 38.632812 44.429688 47.175781 C 43.921875 47.914062 43.871094 47.921875 43.242188 47.292969 C 41.277344 45.320312 39.328125 43.335938 37.347656 41.382812 C 36.835938 40.875 36.777344 40.332031 37.074219 39.742188 C 37.328125 39.242188 37.625 38.761719 37.941406 38.300781 C 44.074219 29.332031 50.242188 20.382812 56.324219 11.375 C 57.046875 10.300781 57.734375 10.03125 59.007812 9.996094 C 60.058594 9.964844 61.03125 10.046875 62.046875 10.066406 C 62.109375 10.066406 62.171875 10.070312 62.3125 10.066406 Z M 62.316406 10.066406 " fill-opacity="1" fill-rule="nonzero"/></g><g clip-path="url(#05f0ded252)"><path fill="#01184e" d="M 62.277344 33.234375 L 62.277344 64.929688 L 51.746094 64.929688 C 51.71875 64.398438 51.667969 63.890625 51.667969 63.378906 C 51.65625 58.742188 51.636719 54.101562 51.664062 49.460938 C 51.664062 49 51.839844 48.472656 52.101562 48.089844 C 55.320312 43.367188 58.566406 38.660156 61.800781 33.953125 C 61.929688 33.765625 62.050781 33.574219 62.277344 33.234375 Z M 62.277344 33.234375 " fill-opacity="1" fill-rule="nonzero"/></g></g></g></g></svg>