<svg xmlns="http://www.w3.org/2000/svg" xmlns:xlink="http://www.w3.org/1999/xlink" width="269" zoomAndPan="magnify" viewBox="0 0 201.75 256.499992" height="342" preserveAspectRatio="xMidYMid meet" version="1.0"><defs><g/><clipPath id="fae8d29b8d"><path d="M 0.570312 153 L 179.738281 153 L 179.738281 217 L 0.570312 217 Z M 0.570312 153 " clip-rule="nonzero"/></clipPath><clipPath id="7b1e70e0cb"><rect x="0" width="180" y="0" height="64"/></clipPath><clipPath id="3a93030e1f"><path d="M 3 201 L 177 201 L 177 247.917969 L 3 247.917969 Z M 3 201 " clip-rule="nonzero"/></clipPath><clipPath id="c58fb4499e"><rect x="0" width="174" y="0" height="47"/></clipPath><clipPath id="513b375da9"><path d="M 4.1875 0.578125 L 113 0.578125 L 113 152.964844 L 4.1875 152.964844 Z M 4.1875 0.578125 " clip-rule="nonzero"/></clipPath><clipPath id="2521c00406"><path d="M 104 0.578125 L 174.9375 0.578125 L 174.9375 105 L 104 105 Z M 104 0.578125 " clip-rule="nonzero"/></clipPath><clipPath id="9cf545c8d5"><path d="M 145 64 L 174.9375 64 L 174.9375 152.964844 L 145 152.964844 Z M 145 64 " clip-rule="nonzero"/></clipPath><clipPath id="3de7141fdc"><rect x="0" width="180" y="0" height="248"/></clipPath></defs><g transform="matrix(1, 0, 0, 1, 11, 0)"><g clip-path="url(#3de7141fdc)"><g clip-path="url(#fae8d29b8d)"><g transform="matrix(1, 0, 0, 1, 0, 153)"><g clip-path="url(#7b1e70e0cb)"><g fill="#79c2ff" fill-opacity="1"><g transform="translate(0.73947, 51.033889)"><g><path d="M 20.234375 0.59375 C 17.140625 0.59375 14.46875 0.0625 12.21875 -1 C 9.96875 -2.0625 8.097656 -3.507812 6.609375 -5.34375 C 5.128906 -7.175781 4.03125 -9.273438 3.3125 -11.640625 C 2.601562 -14.003906 2.25 -16.488281 2.25 -19.09375 C 2.25 -21.6875 2.601562 -24.164062 3.3125 -26.53125 C 4.03125 -28.894531 5.128906 -30.992188 6.609375 -32.828125 C 8.097656 -34.660156 9.96875 -36.097656 12.21875 -37.140625 C 14.46875 -38.191406 17.140625 -38.71875 20.234375 -38.71875 C 23.234375 -38.71875 25.835938 -38.21875 28.046875 -37.21875 C 30.265625 -36.226562 32.046875 -34.835938 33.390625 -33.046875 C 34.742188 -31.265625 35.609375 -29.210938 35.984375 -26.890625 L 29.53125 -26.890625 C 29.132812 -28.953125 28.09375 -30.554688 26.40625 -31.703125 C 24.726562 -32.847656 22.640625 -33.421875 20.140625 -33.421875 C 17.535156 -33.421875 15.359375 -32.804688 13.609375 -31.578125 C 11.867188 -30.347656 10.546875 -28.65625 9.640625 -26.5 C 8.742188 -24.351562 8.296875 -21.882812 8.296875 -19.09375 C 8.296875 -16.289062 8.742188 -13.796875 9.640625 -11.609375 C 10.546875 -9.429688 11.867188 -7.722656 13.609375 -6.484375 C 15.359375 -5.253906 17.535156 -4.640625 20.140625 -4.640625 C 22.640625 -4.640625 24.726562 -5.25 26.40625 -6.46875 C 28.09375 -7.6875 29.132812 -9.507812 29.53125 -11.9375 L 35.984375 -11.9375 C 35.410156 -8.113281 33.765625 -5.066406 31.046875 -2.796875 C 28.335938 -0.535156 24.734375 0.59375 20.234375 0.59375 Z M 20.234375 0.59375 "/></g></g></g><g fill="#79c2ff" fill-opacity="1"><g transform="translate(37.56369, 51.033889)"><g><path d="M 24.6875 -16.734375 L 31.78125 0 L 25.390625 0 L 18.984375 -15.6875 L 9.546875 -15.6875 L 9.546875 0 L 3.640625 0 L 3.640625 -38.125 L 18.984375 -38.125 C 21.378906 -38.125 23.484375 -37.734375 25.296875 -36.953125 C 27.117188 -36.171875 28.535156 -34.960938 29.546875 -33.328125 C 30.566406 -31.691406 31.078125 -29.59375 31.078125 -27.03125 C 31.078125 -24.5 30.5 -22.359375 29.34375 -20.609375 C 28.195312 -18.859375 26.644531 -17.566406 24.6875 -16.734375 Z M 9.546875 -32.828125 L 9.546875 -20.84375 L 18.1875 -20.84375 C 20.457031 -20.84375 22.195312 -21.363281 23.40625 -22.40625 C 24.625 -23.457031 25.234375 -24.953125 25.234375 -26.890625 C 25.234375 -28.785156 24.625 -30.25 23.40625 -31.28125 C 22.195312 -32.3125 20.457031 -32.828125 18.1875 -32.828125 Z M 9.546875 -32.828125 "/></g></g></g><g fill="#79c2ff" fill-opacity="1"><g transform="translate(70.240803, 51.033889)"><g><path d="M 28.734375 0 L 3.640625 0 L 3.640625 -38.125 L 28.734375 -38.125 L 28.734375 -32.828125 L 9.546875 -32.828125 L 9.546875 -21.734375 L 26.578125 -21.734375 L 26.578125 -16.484375 L 9.546875 -16.484375 L 9.546875 -5.296875 L 28.734375 -5.296875 Z M 28.734375 0 "/></g></g></g><g fill="#79c2ff" fill-opacity="1"><g transform="translate(100.119867, 51.033889)"><g><path d="M 14.4375 0 L 3.640625 0 L 3.640625 -38.125 L 14.484375 -38.125 C 20.847656 -38.125 25.726562 -36.46875 29.125 -33.15625 C 32.53125 -29.84375 34.234375 -25.117188 34.234375 -18.984375 C 34.234375 -12.921875 32.53125 -8.238281 29.125 -4.9375 C 25.726562 -1.644531 20.832031 0 14.4375 0 Z M 9.546875 -32.828125 L 9.546875 -5.296875 L 14.390625 -5.296875 C 16.359375 -5.296875 18.179688 -5.507812 19.859375 -5.9375 C 21.546875 -6.375 23.019531 -7.097656 24.28125 -8.109375 C 25.550781 -9.128906 26.539062 -10.519531 27.25 -12.28125 C 27.96875 -14.050781 28.328125 -16.285156 28.328125 -18.984375 C 28.328125 -22.316406 27.742188 -25 26.578125 -27.03125 C 25.410156 -29.0625 23.773438 -30.535156 21.671875 -31.453125 C 19.578125 -32.367188 17.148438 -32.828125 14.390625 -32.828125 Z M 9.546875 -32.828125 "/></g></g></g><g fill="#79c2ff" fill-opacity="1"><g transform="translate(135.595031, 51.033889)"><g><path d="M 9.546875 0 L 3.640625 0 L 3.640625 -38.125 L 9.546875 -38.125 Z M 9.546875 0 "/></g></g></g><g fill="#79c2ff" fill-opacity="1"><g transform="translate(147.886367, 51.033889)"><g><path d="M 18.734375 0 L 12.84375 0 L 12.84375 -32.828125 L 0.59375 -32.828125 L 0.59375 -38.125 L 31.03125 -38.125 L 31.03125 -32.828125 L 18.734375 -32.828125 Z M 18.734375 0 "/></g></g></g></g></g></g><g clip-path="url(#3a93030e1f)"><g transform="matrix(1, 0, 0, 1, 3, 201)"><g clip-path="url(#c58fb4499e)"><g fill="#79c2ff" fill-opacity="1"><g transform="translate(0.472726, 37.791914)"><g><path d="M 5.4375 0 L 2.90625 0 L 2.90625 -28.015625 L 6.984375 -28.015625 L 16.078125 -2.578125 L 25.1875 -28.015625 L 29.265625 -28.015625 L 29.265625 0 L 26.734375 0 L 26.734375 -25.34375 L 17.65625 0 L 14.5 0 L 5.4375 -25.40625 Z M 5.4375 0 "/></g></g></g><g fill="#79c2ff" fill-opacity="1"><g transform="translate(32.633905, 37.791914)"><g><path d="M 3.1875 0 L 0.59375 0 L 11.15625 -28.015625 L 14.09375 -28.015625 L 24.671875 0 L 22.0625 0 L 19.234375 -7.5625 L 6.015625 -7.5625 Z M 12.625 -25.40625 L 6.828125 -9.84375 L 18.4375 -9.84375 Z M 12.625 -25.40625 "/></g></g></g><g fill="#79c2ff" fill-opacity="1"><g transform="translate(57.892919, 37.791914)"><g><path d="M 16.15625 -12.671875 L 21.734375 0 L 18.953125 0 L 13.65625 -12.234375 C 13.488281 -12.203125 13.316406 -12.1875 13.140625 -12.1875 C 12.972656 -12.1875 12.789062 -12.1875 12.59375 -12.1875 L 5.4375 -12.1875 L 5.4375 0 L 2.90625 0 L 2.90625 -28.015625 L 12.59375 -28.015625 C 15.289062 -28.015625 17.445312 -27.351562 19.0625 -26.03125 C 20.675781 -24.707031 21.484375 -22.738281 21.484375 -20.125 C 21.484375 -18.21875 21.007812 -16.625 20.0625 -15.34375 C 19.125 -14.070312 17.820312 -13.179688 16.15625 -12.671875 Z M 5.4375 -14.390625 L 12.265625 -14.390625 C 14.441406 -14.390625 16.101562 -14.878906 17.25 -15.859375 C 18.40625 -16.835938 18.984375 -18.234375 18.984375 -20.046875 C 18.984375 -21.859375 18.394531 -23.257812 17.21875 -24.25 C 16.039062 -25.238281 14.390625 -25.734375 12.265625 -25.734375 L 5.4375 -25.734375 Z M 5.4375 -14.390625 "/></g></g></g><g fill="#79c2ff" fill-opacity="1"><g transform="translate(81.352962, 37.791914)"><g><path d="M 5.4375 0 L 2.90625 0 L 2.90625 -28.015625 L 5.4375 -28.015625 L 5.4375 -15.0625 L 18 -28.015625 L 21.1875 -28.015625 L 8.265625 -14.578125 L 22 0 L 18.46875 0 L 5.4375 -13.953125 Z M 5.4375 0 "/></g></g></g><g fill="#79c2ff" fill-opacity="1"><g transform="translate(103.821727, 37.791914)"><g><path d="M 20.75 0 L 2.90625 0 L 2.90625 -28.015625 L 20.75 -28.015625 L 20.75 -25.734375 L 5.4375 -25.734375 L 5.4375 -15.203125 L 18.875 -15.203125 L 18.875 -12.921875 L 5.4375 -12.921875 L 5.4375 -2.28125 L 20.75 -2.28125 Z M 20.75 0 "/></g></g></g><g fill="#79c2ff" fill-opacity="1"><g transform="translate(126.180352, 37.791914)"><g><path d="M 12.890625 0 L 10.359375 0 L 10.359375 -25.734375 L 0.515625 -25.734375 L 0.515625 -28.015625 L 22.765625 -28.015625 L 22.765625 -25.734375 L 12.890625 -25.734375 Z M 12.890625 0 "/></g></g></g><g fill="#79c2ff" fill-opacity="1"><g transform="translate(148.795934, 37.791914)"><g><path d="M 12.453125 0.375 C 10.679688 0.375 9.023438 0.09375 7.484375 -0.46875 C 5.941406 -1.039062 4.648438 -1.9375 3.609375 -3.15625 C 2.578125 -4.382812 1.898438 -5.976562 1.578125 -7.9375 L 4.15625 -7.9375 C 4.414062 -6.414062 4.976562 -5.210938 5.84375 -4.328125 C 6.71875 -3.453125 7.753906 -2.828125 8.953125 -2.453125 C 10.160156 -2.085938 11.382812 -1.90625 12.625 -1.90625 C 14.851562 -1.90625 16.578125 -2.421875 17.796875 -3.453125 C 19.023438 -4.484375 19.640625 -5.90625 19.640625 -7.71875 C 19.640625 -8.769531 19.421875 -9.628906 18.984375 -10.296875 C 18.546875 -10.972656 17.945312 -11.519531 17.1875 -11.9375 C 16.425781 -12.351562 15.570312 -12.6875 14.625 -12.9375 C 13.6875 -13.195312 12.703125 -13.4375 11.671875 -13.65625 C 10.578125 -13.90625 9.492188 -14.175781 8.421875 -14.46875 C 7.359375 -14.757812 6.390625 -15.15625 5.515625 -15.65625 C 4.648438 -16.15625 3.960938 -16.832031 3.453125 -17.6875 C 2.941406 -18.550781 2.6875 -19.65625 2.6875 -21 C 2.6875 -22.519531 3.082031 -23.828125 3.875 -24.921875 C 4.664062 -26.023438 5.75 -26.878906 7.125 -27.484375 C 8.5 -28.085938 10.050781 -28.390625 11.78125 -28.390625 C 14.226562 -28.390625 16.304688 -27.78125 18.015625 -26.5625 C 19.734375 -25.351562 20.816406 -23.378906 21.265625 -20.640625 L 18.84375 -20.640625 C 18.445312 -22.640625 17.617188 -24.050781 16.359375 -24.875 C 15.097656 -25.695312 13.5625 -26.109375 11.75 -26.109375 C 9.84375 -26.109375 8.273438 -25.664062 7.046875 -24.78125 C 5.828125 -23.90625 5.21875 -22.707031 5.21875 -21.1875 C 5.21875 -19.957031 5.570312 -19.003906 6.28125 -18.328125 C 6.988281 -17.660156 7.910156 -17.15625 9.046875 -16.8125 C 10.191406 -16.46875 11.398438 -16.148438 12.671875 -15.859375 C 13.816406 -15.617188 14.945312 -15.335938 16.0625 -15.015625 C 17.175781 -14.703125 18.195312 -14.265625 19.125 -13.703125 C 20.0625 -13.140625 20.800781 -12.390625 21.34375 -11.453125 C 21.894531 -10.523438 22.171875 -9.316406 22.171875 -7.828125 C 22.171875 -5.378906 21.34375 -3.398438 19.6875 -1.890625 C 18.039062 -0.378906 15.628906 0.375 12.453125 0.375 Z M 12.453125 0.375 "/></g></g></g></g></g></g><g clip-path="url(#513b375da9)"><path fill="#79c2ff" d="M 92.683594 101.488281 C 93.335938 102.015625 93.984375 102.429688 94.488281 102.96875 C 99.386719 108.234375 104.261719 113.523438 109.140625 118.804688 C 109.824219 119.546875 110.4375 120.378906 111.222656 121 C 112.375 121.910156 112.273438 122.804688 111.605469 123.929688 C 104.378906 136.050781 94.371094 144.972656 81.054688 149.765625 C 71.953125 153.046875 62.449219 153.386719 52.890625 152.167969 C 33.808594 149.738281 20.007812 139.570312 10.898438 122.925781 C 6.554688 114.988281 4.414062 106.199219 4.304688 97.226562 C 4.128906 82.613281 4.011719 67.945312 5.035156 53.382812 C 6.242188 36.21875 14.050781 21.96875 27.734375 11.351562 C 36.171875 4.804688 46.066406 1.617188 56.671875 0.953125 C 64.582031 0.457031 72.476562 0.761719 80.199219 2.886719 C 84.949219 4.195312 89.316406 6.277344 93.316406 9.140625 C 100.164062 14.039062 105.476562 20.453125 110.804688 26.855469 C 111.785156 28.027344 110.941406 28.984375 110.320312 29.894531 C 106.777344 35.101562 103.210938 40.292969 99.644531 45.488281 C 98.328125 47.398438 97.03125 49.320312 95.667969 51.191406 C 93.816406 53.730469 93.316406 53.660156 91.277344 51.34375 C 86.921875 46.402344 82.78125 41.207031 77.992188 36.722656 C 70.273438 29.492188 60.964844 27.046875 51.167969 31.621094 C 41.585938 36.089844 35.347656 43.761719 34.472656 54.761719 C 34.050781 60.085938 34.167969 65.453125 34.140625 70.804688 C 34.09375 79.128906 34.054688 87.457031 34.15625 95.78125 C 34.1875 98.496094 34.46875 101.25 34.984375 103.917969 C 36.242188 110.484375 40.199219 115.375 45.550781 119.019531 C 57.285156 127.003906 72.761719 127.15625 83.671875 113.847656 C 86.601562 110.269531 89.140625 106.371094 91.855469 102.617188 C 92.09375 102.289062 92.335938 101.960938 92.679688 101.492188 Z M 92.683594 101.488281 " fill-opacity="1" fill-rule="nonzero"/></g><g clip-path="url(#2521c00406)"><path fill="#79c2ff" d="M 174.945312 0.886719 C 174.976562 1.511719 175.011719 2.140625 175.011719 2.664062 C 175.046875 11.34375 175.117188 20.023438 175.050781 28.703125 C 175.042969 29.976562 174.640625 31.449219 173.933594 32.496094 C 157.886719 56.074219 141.769531 79.613281 125.660156 103.15625 C 124.261719 105.195312 124.117188 105.214844 122.386719 103.480469 C 116.96875 98.054688 111.589844 92.582031 106.140625 87.195312 C 104.722656 85.792969 104.570312 84.304688 105.386719 82.671875 C 106.078125 81.296875 106.902344 79.976562 107.769531 78.703125 C 124.679688 53.984375 141.671875 29.316406 158.433594 4.496094 C 160.429688 1.535156 162.324219 0.792969 165.832031 0.695312 C 168.730469 0.609375 171.414062 0.835938 174.203125 0.886719 C 174.378906 0.886719 174.550781 0.894531 174.941406 0.890625 Z M 174.945312 0.886719 " fill-opacity="1" fill-rule="nonzero"/></g><g clip-path="url(#9cf545c8d5)"><path fill="#79c2ff" d="M 174.839844 64.734375 L 174.839844 152.097656 L 145.824219 152.097656 C 145.742188 150.632812 145.605469 149.222656 145.601562 147.820312 C 145.566406 135.035156 145.519531 122.246094 145.589844 109.460938 C 145.597656 108.1875 146.082031 106.738281 146.804688 105.683594 C 155.664062 92.660156 164.609375 79.695312 173.535156 66.714844 C 173.886719 66.199219 174.222656 65.679688 174.847656 64.742188 Z M 174.839844 64.734375 " fill-opacity="1" fill-rule="nonzero"/></g></g></g></svg>