<svg xmlns="http://www.w3.org/2000/svg" xmlns:xlink="http://www.w3.org/1999/xlink" width="229" zoomAndPan="magnify" viewBox="0 0 171.75 153.750002" height="205" preserveAspectRatio="xMidYMid meet" version="1.0"><defs><clipPath id="db70ce62a2"><path d="M 0.015625 0.578125 L 108 0.578125 L 108 153 L 0.015625 153 Z M 0.015625 0.578125 " clip-rule="nonzero"/></clipPath><clipPath id="75a3369a8d"><path d="M 100 0.578125 L 170.738281 0.578125 L 170.738281 105 L 100 105 Z M 100 0.578125 " clip-rule="nonzero"/></clipPath><clipPath id="f8601bf14e"><path d="M 141 64 L 170.738281 64 L 170.738281 153 L 141 153 Z M 141 64 " clip-rule="nonzero"/></clipPath></defs><g clip-path="url(#db70ce62a2)"><path fill="#79c2ff" d="M 88.539062 101.515625 C 89.191406 102.046875 89.835938 102.460938 90.34375 103 C 95.242188 108.269531 100.117188 113.558594 105 118.839844 C 105.683594 119.582031 106.300781 120.414062 107.085938 121.039062 C 108.234375 121.945312 108.136719 122.839844 107.464844 123.96875 C 100.238281 136.089844 90.226562 145.015625 76.90625 149.8125 C 67.800781 153.09375 58.296875 153.433594 48.730469 152.214844 C 29.644531 149.78125 15.839844 139.613281 6.726562 122.964844 C 2.382812 115.023438 0.242188 106.230469 0.132812 97.253906 C -0.0429688 82.640625 -0.160156 67.96875 0.863281 53.398438 C 2.070312 36.230469 9.882812 21.976562 23.570312 11.355469 C 32.007812 4.804688 41.90625 1.617188 52.515625 0.953125 C 60.425781 0.457031 68.324219 0.761719 76.050781 2.886719 C 80.804688 4.195312 85.171875 6.28125 89.171875 9.144531 C 96.023438 14.042969 101.335938 20.457031 106.664062 26.863281 C 107.644531 28.035156 106.804688 28.992188 106.179688 29.902344 C 102.636719 35.109375 99.066406 40.304688 95.5 45.5 C 94.1875 47.414062 92.886719 49.335938 91.523438 51.207031 C 89.671875 53.746094 89.171875 53.675781 87.128906 51.359375 C 82.773438 46.414062 78.632812 41.21875 73.84375 36.734375 C 66.121094 29.5 56.8125 27.054688 47.011719 31.628906 C 37.421875 36.101562 31.1875 43.773438 30.3125 54.777344 C 29.886719 60.101562 30.007812 65.472656 29.976562 70.828125 C 29.929688 79.152344 29.890625 87.484375 29.992188 95.808594 C 30.027344 98.523438 30.304688 101.28125 30.820312 103.949219 C 32.082031 110.519531 36.039062 115.410156 41.390625 119.054688 C 53.128906 127.042969 68.609375 127.195312 79.523438 113.882812 C 82.453125 110.304688 84.996094 106.402344 87.710938 102.648438 C 87.949219 102.320312 88.191406 101.992188 88.535156 101.523438 Z M 88.539062 101.515625 " fill-opacity="1" fill-rule="nonzero"/></g><g clip-path="url(#75a3369a8d)"><path fill="#79c2ff" d="M 170.824219 0.886719 C 170.855469 1.511719 170.894531 2.140625 170.894531 2.664062 C 170.925781 11.347656 170.996094 20.03125 170.929688 28.710938 C 170.921875 29.988281 170.523438 31.457031 169.8125 32.503906 C 153.761719 56.09375 137.636719 79.636719 121.523438 103.1875 C 120.125 105.226562 119.980469 105.246094 118.25 103.511719 C 112.832031 98.082031 107.449219 92.609375 102 87.222656 C 100.582031 85.816406 100.429688 84.328125 101.246094 82.695312 C 101.9375 81.320312 102.757812 80 103.628906 78.730469 C 120.542969 54 137.542969 29.324219 154.308594 4.496094 C 156.304688 1.535156 158.199219 0.792969 161.710938 0.695312 C 164.609375 0.609375 167.292969 0.835938 170.082031 0.886719 C 170.261719 0.886719 170.429688 0.894531 170.820312 0.890625 Z M 170.824219 0.886719 " fill-opacity="1" fill-rule="nonzero"/></g><g clip-path="url(#f8601bf14e)"><path fill="#79c2ff" d="M 170.722656 64.753906 L 170.722656 152.144531 L 141.695312 152.144531 C 141.613281 150.675781 141.476562 149.269531 141.472656 147.867188 C 141.4375 135.078125 141.390625 122.285156 141.460938 109.496094 C 141.46875 108.222656 141.953125 106.769531 142.675781 105.714844 C 151.539062 92.6875 160.488281 79.71875 169.414062 66.734375 C 169.765625 66.222656 170.101562 65.699219 170.726562 64.761719 Z M 170.722656 64.753906 " fill-opacity="1" fill-rule="nonzero"/></g></svg>